<?xml version="1.0" encoding="UTF-8" standalone="no"?>
<!-- Created with Inkscape (http://www.inkscape.org/) -->

<svg
   width="48mm"
   height="48mm"
   viewBox="0 0 48 48"
   version="1.1"
   id="svg374"
   inkscape:version="1.2.2 (732a01da63, 2022-12-09)"
   sodipodi:docname="clasps.inkscape.svg"
   xml:space="preserve"
   xmlns:inkscape="http://www.inkscape.org/namespaces/inkscape"
   xmlns:sodipodi="http://sodipodi.sourceforge.net/DTD/sodipodi-0.dtd"
   xmlns="http://www.w3.org/2000/svg"
   xmlns:svg="http://www.w3.org/2000/svg"><sodipodi:namedview
     id="namedview376"
     pagecolor="#ffffff"
     bordercolor="#666666"
     borderopacity="1.0"
     inkscape:showpageshadow="2"
     inkscape:pageopacity="0.0"
     inkscape:pagecheckerboard="0"
     inkscape:deskcolor="#d1d1d1"
     inkscape:document-units="mm"
     showgrid="true"
     inkscape:zoom="9.5547875"
     inkscape:cx="66.56349"
     inkscape:cy="88.332682"
     inkscape:window-width="3840"
     inkscape:window-height="2036"
     inkscape:window-x="-12"
     inkscape:window-y="-12"
     inkscape:window-maximized="1"
     inkscape:current-layer="layer2"><inkscape:grid
       type="xygrid"
       id="grid869"
       units="mm"
       spacingx="0.99999997"
       spacingy="0.99999997"
       empspacing="4" /></sodipodi:namedview><defs
     id="defs371"><inkscape:path-effect
       effect="fillet_chamfer"
       id="path-effect7584"
       is_visible="true"
       lpeversion="1"
       nodesatellites_param="F,0,0,1,0,0.26458333,0,1 @ F,0,0,1,0,0.26458333,0,1 @ F,0,0,1,0,0.26458333,0,1 @ F,0,0,1,0,0.26458333,0,1 @ F,0,0,1,0,0.26458333,0,1 @ F,0,0,1,0,0.26458333,0,1 @ F,0,0,1,0,0.26458333,0,1 @ F,0,0,1,0,0.26458333,0,1 @ F,0,0,1,0,0.26458333,0,1 @ F,0,0,1,0,0.26458333,0,1 @ F,0,0,1,0,0.26458333,0,1 @ F,0,0,1,0,0.26458333,0,1 @ F,0,0,1,0,0.26458333,0,1 @ F,0,0,1,0,0.26458333,0,1 @ F,0,0,1,0,0.26458333,0,1 @ F,0,0,1,0,0.26458333,0,1 @ F,0,0,1,0,0.26458333,0,1 @ F,0,0,1,0,0.26458333,0,1 @ F,0,0,1,0,0.26458333,0,1 @ F,0,0,1,0,0.26458333,0,1 @ F,0,0,1,0,0.26458333,0,1 @ F,0,0,1,0,0.26458333,0,1 @ F,0,0,1,0,0.26458333,0,1 @ F,0,0,1,0,0.26458333,0,1 @ F,0,0,1,0,0.26458333,0,1 @ F,0,0,1,0,0.26458333,0,1 @ F,0,0,1,0,0.26458333,0,1 @ F,0,0,1,0,0.26458333,0,1 @ F,0,0,1,0,0.26458333,0,1 @ F,0,0,1,0,0.26458333,0,1 @ F,0,0,1,0,0.26458333,0,1 @ F,0,0,1,0,0.26458333,0,1 @ F,0,0,1,0,0.26458333,0,1 @ F,0,0,1,0,0.26458333,0,1 @ F,0,0,1,0,0.26458333,0,1 @ F,0,0,1,0,0.26458333,0,1"
       unit="px"
       method="auto"
       mode="F"
       radius="1"
       chamfer_steps="1"
       flexible="false"
       use_knot_distance="true"
       apply_no_radius="true"
       apply_with_radius="true"
       only_selected="false"
       hide_knots="false" /></defs><g
     inkscape:label="Semicircle"
     inkscape:groupmode="layer"
     id="layer1"
     style="display:none"><path
       style="font-variation-settings:normal;opacity:1;vector-effect:none;fill:none;fill-opacity:1;fill-rule:evenodd;stroke:#ff0000;stroke-width:0.0999996;stroke-linecap:butt;stroke-linejoin:miter;stroke-miterlimit:4;stroke-dasharray:none;stroke-dashoffset:0;stroke-opacity:1;-inkscape-stroke:none;stop-color:#000000;stop-opacity:1"
       d="M 11,22.999999 H 36.999999"
       id="path782"
       sodipodi:nodetypes="cc"
       inkscape:label="bottomCut" /><path
       id="path3265"
       style="opacity:1;vector-effect:none;fill:none;stroke:#0000ff;stroke-width:0.1;stop-color:#000000;stop-opacity:1"
       inkscape:label="topCut"
       d="m 12,24.024983 a 11.999999,11.999999 0 0 1 6,-10.392304 11.999999,11.999999 0 0 1 11.999999,0 11.999999,11.999999 0 0 1 5.999999,10.392304" /></g><g
     inkscape:groupmode="layer"
     id="layer4"
     inkscape:label="Tuck"
     style="display:none"><path
       style="font-variation-settings:normal;opacity:1;vector-effect:none;fill:none;fill-opacity:1;fill-rule:evenodd;stroke:#ff0000;stroke-width:0.0999996;stroke-linecap:butt;stroke-linejoin:miter;stroke-miterlimit:4;stroke-dasharray:none;stroke-dashoffset:0;stroke-opacity:1;-inkscape-stroke:none;stop-color:#000000;stop-opacity:1"
       d="M 38.999998,33.999998 H 8.9999996"
       id="path3326"
       inkscape:label="bottomCut" /></g><g
     inkscape:groupmode="layer"
     id="layer2"
     inkscape:label="Heart"><path
       id="path1167"
       style="font-variation-settings:normal;display:inline;opacity:1;vector-effect:none;fill:none;fill-opacity:1;fill-rule:evenodd;stroke:#ff0000;stroke-width:0.0999996;stroke-linecap:butt;stroke-linejoin:miter;stroke-miterlimit:4;stroke-dasharray:none;stroke-dashoffset:0;stroke-opacity:1;-inkscape-stroke:none;stop-color:#000000;stop-opacity:1"
       d="m 20.999752,17.653186 c -1.190166,-0.497371 -2.322733,-0.615334 -3.030306,-0.625285 -0.0414,-5.82e-4 -0.08372,-6.41e-4 -0.126091,0 -1.313517,0.01987 -3.078092,0.625104 -4.151168,1.671732 -1.107691,1.08039 -1.692403,2.855897 -1.692403,4.300513 0,1.444617 0.755655,3.283689 1.701705,4.597136 0.623646,0.865837 4.465532,5.109639 7.298263,7.90236 m 6.00015,5.16e-4 c 2.832781,-2.792713 6.674577,-7.036985 7.298263,-7.902876 0.94605,-1.313447 1.701705,-3.152519 1.701705,-4.597136 0,-1.444616 -0.584713,-3.220123 -1.692404,-4.300513 -1.107691,-1.080391 -2.952121,-1.690362 -4.276741,-1.671732 -0.707573,0.01 -1.840658,0.127914 -3.030823,0.625285"
       inkscape:label="bottomCut"
       sodipodi:nodetypes="csssssccssssc" /><path
       id="path1167-2"
       style="font-variation-settings:normal;display:inline;vector-effect:none;fill:none;fill-opacity:1;fill-rule:evenodd;stroke:#0000ff;stroke-width:0.1;stroke-linecap:butt;stroke-linejoin:miter;stroke-miterlimit:4;stroke-dasharray:none;stroke-dashoffset:0;stroke-opacity:1;-inkscape-stroke:none;stop-color:#000000;opacity:1;stop-opacity:1"
       d="m 19.999971,16.999999 v 17.999483 c 1.895886,1.929117 3.584694,3.504696 4.000272,3.504696 0.415541,0 2.104081,-1.575303 3.999756,-3.504179 v -18 c -1.305821,0.350164 -2.829644,1.104443 -3.999756,2.686658 -1.170226,-1.58237 -2.694366,-2.336539 -4.000272,-2.686658 z"
       sodipodi:nodetypes="ccscccc"
       inkscape:label="topCut" /><path
       style="fill:none;fill-rule:evenodd;stroke:#ff0000;stroke-width:0.02;stroke-linecap:butt;stroke-linejoin:miter;stroke-opacity:1;font-variation-settings:normal;opacity:1;vector-effect:none;fill-opacity:1;stroke-miterlimit:4;stroke-dasharray:none;stroke-dashoffset:0;-inkscape-stroke:none;stop-color:#000000;stop-opacity:1"
       d="m 20.999752,17.653186 v 17.846457 m 6.000149,5.29e-4 V 17.6532"
       id="path1431"
       sodipodi:nodetypes="cccc"
       inkscape:label="bottomFold" /></g><g
     inkscape:groupmode="layer"
     id="layer3"
     inkscape:label="Circle"
     style="display:none"><path
       id="rect858"
       style="fill:none;stroke:#0000ff;stroke-width:0.1;stop-color:#000000"
       inkscape:label="topCut"
       d="m 22.5,11 h 3 c 0.554,0 1,0.446 1,1 v 24 c 0,0.554 -0.446,1 -1,1 h -3 c -0.554,0 -1,-0.446 -1,-1 V 12 c 0,-0.554 0.446,-1 1,-1 z" /><path
       id="path3131"
       style="fill:none;stroke:#ff0000;stroke-width:0.1;stroke-dasharray:none;stroke-dashoffset:0;stroke-opacity:1;stop-color:#000000"
       d="m 25.999963,35.826237 c 5.771462,-0.975601 9.996985,-5.972814 9.999907,-11.826152 -4.02e-4,-5.855291 -4.22652,-10.855392 -9.999907,-11.831319 m -3.999755,0.0052 c -5.771667,0.975376 -9.997458,5.972649 -10.000424,11.826151 0.003,5.853503 4.228757,10.850776 10.000424,11.826152"
       sodipodi:nodetypes="cccccc"
       inkscape:label="bottomCut" /><path
       style="font-variation-settings:normal;opacity:1;fill:none;fill-opacity:1;fill-rule:evenodd;stroke:#ff0000;stroke-width:0.02;stroke-linecap:butt;stroke-linejoin:miter;stroke-miterlimit:4;stroke-dasharray:none;stroke-dashoffset:0;stroke-opacity:1;stop-color:#000000;stop-opacity:1"
       d="m 22.000208,12.173966 v 23.652302 m 3.999755,-3.1e-5 V 12.168766"
       id="path3393"
       sodipodi:nodetypes="cccc"
       inkscape:label="bottomFold" /></g><g
     id="hexSlot"
     inkscape:label="Hexagon"
     style="display:none"
     inkscape:groupmode="layer"><path
       id="rect858-8"
       style="fill:none;stroke:#0000ff;stroke-width:0.125;stroke-dasharray:none;stop-color:#000000"
       inkscape:label="topCut"
       d="m 17.999999,11.999999 h 12 c 0.554,0 1,0.446 1,1 v 22 c 0,0.554 -0.446,1 -1,1 h -12 c -0.554,0 -1,-0.446 -1,-1 v -22 c 0,-0.554 0.446,-1 1,-1 z" /><path
       style="font-variation-settings:normal;display:inline;opacity:1;fill:none;fill-opacity:1;fill-rule:evenodd;stroke:#ff0000;stroke-width:0.02;stroke-linecap:butt;stroke-linejoin:miter;stroke-miterlimit:4;stroke-dasharray:none;stroke-dashoffset:0;stroke-opacity:1;stop-color:#000000;stop-opacity:1"
       d="m 17.662779,12.985284 -0.03091,22.006618 m 12.705527,0.01785 0.03091,-22.006619"
       id="path3393-1"
       sodipodi:nodetypes="cccc"
       inkscape:label="bottomFold" /><path
       id="path3541"
       style="font-variation-settings:normal;opacity:1;vector-effect:none;fill:none;fill-opacity:1;stroke:#ff0000;stroke-width:0.0999996;stroke-linecap:butt;stroke-linejoin:miter;stroke-miterlimit:4;stroke-dasharray:none;stroke-dashoffset:0;stroke-opacity:1;-inkscape-stroke:none;stop-color:#000000;stop-opacity:1"
       d="M 17.631779,34.994384 11.294472,23.982151 17.662693,12.987766 m 12.705527,0.01785 6.337307,11.012233 -6.368221,10.994386"
       sodipodi:nodetypes="cccccc"
       inkscape:label="bottomCut" /></g><g
     inkscape:groupmode="layer"
     id="layer5"
     inkscape:label="Sun"
     style="display:none"><path
       sodipodi:type="star"
       style="font-variation-settings:normal;display:none;opacity:1;vector-effect:none;fill:none;fill-opacity:1;stroke:#0000ff;stroke-width:0.1;stroke-linecap:butt;stroke-linejoin:miter;stroke-miterlimit:4;stroke-dasharray:none;stroke-dashoffset:0;stroke-opacity:1;-inkscape-stroke:none;stop-color:#000000;stop-opacity:1"
       id="path3627"
       inkscape:flatsided="false"
       sodipodi:sides="18"
       sodipodi:cx="24"
       sodipodi:cy="24"
       sodipodi:r1="12.070828"
       sodipodi:r2="9.9735518"
       sodipodi:arg1="-0.0026690659"
       sodipodi:arg2="0.17186386"
       inkscape:rounded="0"
       inkscape:randomized="0"
       d="m 35.861594,24.12978 -1.825784,1.413889 a 0.28976904,0.28976904 99.847074 0 0 -0.06683,0.385017 l 1.242506,1.946472 a 0.20376624,0.20376624 109.84707 0 1 -0.109621,0.3037 l -2.199254,0.704166 a 0.28976904,0.28976904 119.84707 0 0 -0.194484,0.33894 l 0.501841,2.254047 a 0.20376624,0.20376624 129.84707 0 1 -0.206881,0.247892 l -2.307462,-0.09049 a 0.28976904,0.28976904 139.84707 0 0 -0.298679,0.251982 l -0.299353,2.289751 a 0.20376624,0.20376624 149.84707 0 1 -0.279189,0.162185 l -2.137356,-0.874231 a 0.28976904,0.28976904 159.84707 0 0 -0.366849,0.134632 l -1.064441,2.049277 a 0.20376624,0.20376624 169.84707 0 1 -0.317822,0.05692 l -1.709453,-1.552527 a 0.28976904,0.28976904 179.84707 0 0 -0.390773,0.001 l -1.701141,1.56163 a 0.20376624,0.20376624 9.8470737 0 1 -0.318122,-0.05522 l -1.075365,-2.043566 a 0.28976904,0.28976904 19.847074 0 0 -0.367563,-0.132672 l -2.132658,0.885628 A 0.20376624,0.20376624 29.847074 0 1 17.95681,34.207552 l -0.311572,-2.28812 a 0.28976904,0.28976904 39.847074 0 0 -0.30002,-0.250385 l -2.306946,0.102806 a 0.20376624,0.20376624 49.847074 0 1 -0.208201,-0.246785 l 0.489801,-2.256693 a 0.28976904,0.28976904 59.847074 0 0 -0.19629,-0.337898 L 12.9206,28.238061 a 0.20376624,0.20376624 69.847074 0 1 -0.11124,-0.30311 l 1.232097,-1.953077 a 0.28976904,0.28976904 79.847074 0 0 -0.06888,-0.384654 l -1.833305,-1.404123 a 0.20376624,0.20376624 89.847074 0 1 -8.62e-4,-0.322877 l 1.825784,-1.413889 a 0.28976904,0.28976904 99.847074 0 0 0.06683,-0.385017 l -1.242506,-1.946472 a 0.20376624,0.20376624 109.84707 0 1 0.109621,-0.3037 l 2.199254,-0.704166 a 0.28976904,0.28976904 119.84707 0 0 0.194484,-0.33894 l -0.501841,-2.254047 a 0.20376624,0.20376624 129.84707 0 1 0.206881,-0.247892 l 2.307462,0.09049 a 0.28976904,0.28976904 139.84707 0 0 0.298679,-0.251982 l 0.299353,-2.289751 a 0.20376624,0.20376624 149.84707 0 1 0.279189,-0.162185 l 2.137356,0.874231 a 0.28976904,0.28976904 159.84707 0 0 0.366849,-0.134632 l 1.064441,-2.049277 a 0.20376624,0.20376624 169.84707 0 1 0.317822,-0.05692 l 1.709453,1.552527 a 0.28976904,0.28976904 179.84707 0 0 0.390773,-0.001 l 1.701141,-1.56163 a 0.20376624,0.20376624 9.8470737 0 1 0.318122,0.05522 l 1.075365,2.043566 a 0.28976904,0.28976904 19.847074 0 0 0.367563,0.132672 l 2.132658,-0.885628 a 0.20376624,0.20376624 29.847074 0 1 0.280051,0.160692 l 0.311572,2.28812 a 0.28976904,0.28976904 39.847074 0 0 0.30002,0.250385 l 2.306946,-0.102806 a 0.20376624,0.20376624 49.847074 0 1 0.208201,0.246785 l -0.489801,2.256693 a 0.28976904,0.28976904 59.847074 0 0 0.19629,0.337898 l 2.202982,0.692416 a 0.20376624,0.20376624 69.847074 0 1 0.11124,0.30311 l -1.232097,1.953077 a 0.28976904,0.28976904 79.847074 0 0 0.06888,0.384654 l 1.833305,1.404123 a 0.20376624,0.20376624 89.847074 0 1 8.62e-4,0.322877 z"
       inkscape:path-effect="#path-effect7584" /><path
       id="path3627-2"
       d="m 27.262922,14.384754 c 0.06978,0.132613 0.229168,0.190143 0.367563,0.132672 l 2.132658,-0.885628 c 0.123461,-0.05127 0.262014,0.02823 0.280051,0.160692 l 0.311572,2.28812 c 0.02022,0.148483 0.150315,0.257057 0.30002,0.250385 l 2.306946,-0.102806 c 0.133551,-0.006 0.236557,0.116143 0.208201,0.246785 l -0.489801,2.256693 c -0.03178,0.146444 0.05333,0.292965 0.19629,0.337898 l 2.202982,0.692416 c 0.127532,0.04009 0.182567,0.190045 0.11124,0.30311 l -1.232097,1.953077 c -0.07996,0.12674 -0.05009,0.293535 0.06888,0.384654 l 1.833305,1.404123 c 0.106132,0.08129 0.106558,0.241026 8.62e-4,0.322877 v -4.2e-5 l -1.825784,1.413889 c -0.118481,0.09175 -0.14746,0.258704 -0.06683,0.385017 l 1.242506,1.946472 c 0.07193,0.112683 0.0177,0.262936 -0.109621,0.3037 l -2.199254,0.704166 c -0.142717,0.0457 -0.22705,0.192668 -0.194484,0.33894 l 0.501841,2.254047 c 0.02905,0.130488 -0.0733,0.25313 -0.206881,0.247892 l -2.307462,-0.09049 c -0.149738,-0.0059 -0.279253,0.103393 -0.298679,0.251982 l -0.299353,2.289751 c -0.01733,0.132556 -0.155456,0.212795 -0.279189,0.162185 L 27.681048,33.4631 c -0.1387,-0.05673 -0.297774,0.0016 -0.366849,0.134632 m -6.577117,0.01751 c -0.06978,-0.132613 -0.229168,-0.190143 -0.367563,-0.132672 l -2.132658,0.885628 c -0.123447,0.05127 -0.26199,-0.02821 -0.280051,-0.16065 l -0.311572,-2.28812 c -0.02022,-0.148483 -0.150315,-0.257057 -0.30002,-0.250385 l -2.306946,0.102806 c -0.133551,0.006 -0.236557,-0.116143 -0.208201,-0.246785 l 0.489801,-2.256693 c 0.03178,-0.146444 -0.05333,-0.292965 -0.19629,-0.337898 L 12.9206,28.238061 c -0.127532,-0.04008 -0.182567,-0.190045 -0.11124,-0.30311 l 1.232097,-1.953077 c 0.07996,-0.12674 0.05009,-0.293535 -0.06888,-0.384654 L 12.139272,24.193097 C 12.03314,24.111811 12.032714,23.952071 12.13841,23.87022 l 1.825784,-1.413889 c 0.118481,-0.09175 0.14746,-0.258704 0.06683,-0.385017 l -1.242506,-1.946472 c -0.07193,-0.112683 -0.0177,-0.262936 0.109621,-0.3037 l 2.199254,-0.704166 c 0.142717,-0.0457 0.22705,-0.192668 0.194484,-0.33894 l -0.501841,-2.254047 c -0.02905,-0.130488 0.0733,-0.25313 0.206881,-0.247892 l 2.307462,0.09049 c 0.149738,0.0059 0.279253,-0.103393 0.298679,-0.251982 l 0.299353,-2.289751 c 0.01733,-0.132556 0.155456,-0.212795 0.279189,-0.162185 l 2.137356,0.874231 c 0.138699,0.05673 0.297774,-0.0016 0.366849,-0.134632"
       style="font-variation-settings:normal;display:inline;vector-effect:none;fill:none;fill-opacity:1;stroke:#ff0000;stroke-width:0.0999995;stroke-linecap:butt;stroke-linejoin:miter;stroke-miterlimit:4;stroke-dasharray:none;stroke-dashoffset:0;stroke-opacity:1;-inkscape-stroke:none;stop-color:#000000"
       sodipodi:nodetypes="csssssscssssccsccsssssssssssssccsccssscssssccssssscccssscsssc"
       inkscape:label="bottomCut" /><path
       style="font-variation-settings:normal;display:inline;opacity:1;vector-effect:none;fill:none;fill-opacity:1;fill-rule:evenodd;stroke:#0000ff;stroke-width:0.1;stroke-linecap:butt;stroke-linejoin:miter;stroke-miterlimit:4;stroke-dasharray:none;stroke-dashoffset:0;stroke-opacity:1;-inkscape-stroke:none;stop-color:#000000;stop-opacity:1"
       d="m 27.630479,14.517384 0.05057,18.945716 -7.311528,0.01947 -0.05057,-18.945672"
       id="path464"
       inkscape:label="topCut" /></g><g
     id="guides"
     inkscape:label="guides"
     inkscape:groupmode="layer"><path
       style="fill:none;fill-rule:evenodd;stroke:#333333;stroke-width:0.1;stroke-linecap:butt;stroke-linejoin:miter;stroke-dasharray:0.3, 0.1;stroke-dashoffset:0;stroke-opacity:1"
       d="m 0,23.999999 23.999999,24 24,-24 L 23.999999,0 Z"
       id="path882"
       inkscape:label="outline" /><path
       style="fill:none;fill-rule:evenodd;stroke:#ff0000;stroke-width:0.0999996;stroke-linecap:butt;stroke-linejoin:miter;stroke-opacity:1;font-variation-settings:normal;opacity:1;vector-effect:none;fill-opacity:1;stroke-miterlimit:4;stroke-dasharray:none;stroke-dashoffset:0;-inkscape-stroke:none;stop-color:#000000;stop-opacity:1"
       d="M 1.9999999,1.9999999 H 12"
       id="path2095"
       sodipodi:nodetypes="cc"
       inkscape:label="bottomCut" /><path
       style="fill:none;fill-rule:evenodd;stroke:#ff0000;stroke-width:0.02;stroke-linecap:butt;stroke-linejoin:miter;stroke-opacity:1;font-variation-settings:normal;opacity:1;vector-effect:none;fill-opacity:1;stroke-miterlimit:4;stroke-dasharray:none;stroke-dashoffset:0;-inkscape-stroke:none;stop-color:#000000;stop-opacity:1"
       d="M 1.9999999,3.9999999 H 11.999999"
       id="path2097"
       inkscape:label="bottomFold" /><path
       style="fill:none;fill-rule:evenodd;stroke:#0000ff;stroke-width:0.1;stroke-linecap:butt;stroke-linejoin:miter;stroke-opacity:1;font-variation-settings:normal;opacity:1;vector-effect:none;fill-opacity:1;stroke-miterlimit:4;stroke-dasharray:none;stroke-dashoffset:0;-inkscape-stroke:none;stop-color:#000000;stop-opacity:1"
       d="M 1.9999999,5.9999998 H 11.999999"
       id="path2099"
       inkscape:label="topCut" /></g></svg>
